<svg width="20" height="20" viewBox="0 0 20 20" fill="none" xmlns="http://www.w3.org/2000/svg">
    <path d="M10 0C11.3833 0 12.6793 0.262667 13.888 0.788C15.0967 1.31333 16.1547 2.03 17.062 2.938C17.9693 3.846 18.686 4.90433 19.212 6.113C19.738 7.32167 20.0007 8.61733 20 10C20 11.3667 19.7373 12.6583 19.212 13.875C18.6867 15.0917 17.97 16.1543 17.062 17.063C16.154 17.9717 15.0957 18.6883 13.887 19.213C12.6783 19.7377 11.3827 20 10 20C8.63333 20 7.34167 19.7373 6.125 19.212C4.90833 18.6867 3.846 17.97 2.938 17.062C2.03 16.154 1.31333 15.0917 0.788 13.875C0.262667 12.6583 0 11.3667 0 10C0 8.61667 0.262667 7.321 0.788 6.113C1.31333 4.905 2.03 3.84667 2.938 2.938C3.846 2.02933 4.90833 1.31267 6.125 0.788C7.34167 0.263333 8.63333 0.000666667 10 0ZM10 18C12.2167 18 14.1043 17.221 15.663 15.663C17.2217 14.105 18.0007 12.2173 18 10C17.9993 7.78267 17.2203 5.895 15.663 4.337C14.1057 2.779 12.218 2 10 2C7.782 2 5.89433 2.77933 4.337 4.338C2.77967 5.89667 2.00067 7.784 2 10C1.99933 12.216 2.77867 14.1037 4.338 15.663C5.89733 17.2223 7.78467 18.0013 10 18ZM8 5C8 5.55 8.196 6.021 8.588 6.413C8.98 6.805 9.45067 7.00067 10 7C10.5493 6.99933 11.0203 6.80367 11.413 6.413C11.8057 6.02233 12.0013 5.55133 12 5C11.9987 4.44867 11.803 3.978 11.413 3.588C11.023 3.198 10.552 3.002 10 3C9.448 2.998 8.97733 3.194 8.588 3.588C8.19867 3.982 8.00267 4.45267 8 5ZM10 8C8.9 8 7.875 8.17933 6.925 8.538C5.975 8.89667 5.5 9.55067 5.5 10.5V14.5C5.5 15.45 5.975 16.096 6.925 16.438C7.875 16.78 8.9 16.9507 10 16.95C10.2833 16.95 10.521 16.854 10.713 16.662C10.905 16.47 11.0007 16.2327 11 15.95C10.9993 15.6673 10.9033 15.43 10.712 15.238C10.5207 15.046 10.2833 14.95 10 14.95C9.66667 14.95 9.33767 14.925 9.013 14.875C8.68833 14.825 8.37567 14.7333 8.075 14.6C7.89167 14.5167 7.775 14.3877 7.725 14.213C7.675 14.0383 7.70833 13.884 7.825 13.75C8.10833 13.4667 8.44167 13.271 8.825 13.163C9.20833 13.055 9.6 13.0007 10 13C10.6167 13 11.1877 13.1083 11.713 13.325C12.2383 13.5417 12.5007 13.9167 12.5 14.45V15.3C12.5 15.5 12.571 15.675 12.713 15.825C12.855 15.975 13.0257 16.05 13.225 16.05C13.6083 16.05 13.9167 15.8917 14.15 15.575C14.3833 15.2583 14.5 14.9 14.5 14.5V10.5C14.5 9.55 14.025 8.89567 13.075 8.537C12.125 8.17833 11.1 7.99933 10 8ZM10 12.5C9.65 12.5 9.354 12.379 9.112 12.137C8.87 11.895 8.74933 11.5993 8.75 11.25C8.75067 10.9007 8.87167 10.6047 9.113 10.362C9.35433 10.1193 9.65 9.99867 10 10C10.35 10.0013 10.646 10.1223 10.888 10.363C11.13 10.6037 11.2507 10.8993 11.25 11.25C11.2493 11.6007 11.1283 11.8967 10.887 12.138C10.6457 12.3793 10.35 12.5 10 12.5Z" fill="#616161"/>
</svg>
