<svg width="14" height="17" viewBox="0 0 14 17" fill="none" xmlns="http://www.w3.org/2000/svg">
    <path d="M5.85333 4.64167L5.6675 5.4H4.775L4.69 5.40583C4.54037 5.42637 4.40324 5.5004 4.30397 5.61422C4.2047 5.72805 4.15001 5.87397 4.15 6.025L4.15583 6.11C4.17637 6.25963 4.2504 6.39676 4.36422 6.49603C4.47805 6.5953 4.62397 6.64999 4.775 6.65H5.36083L5.0375 7.97167L4.37417 7.9725L4.28917 7.97833C4.13954 7.99887 4.00241 8.0729 3.90314 8.18672C3.80387 8.30055 3.74917 8.44647 3.74917 8.5975L3.755 8.6825C3.77554 8.83213 3.84957 8.96926 3.96339 9.06853C4.07721 9.1678 4.22313 9.22249 4.37417 9.2225H4.73167L4.62917 9.64417L4.61417 9.7275C4.59836 9.87789 4.63761 10.0289 4.72465 10.1526C4.81168 10.2762 4.9406 10.3641 5.0875 10.4L5.17083 10.415C5.32122 10.4308 5.47224 10.3916 5.5959 10.3045C5.71956 10.2175 5.80747 10.0886 5.84333 9.94167L6.01833 9.22167H7.30083L7.2025 9.65333L7.18917 9.73667C7.17549 9.88735 7.21693 10.0379 7.30582 10.1603C7.3947 10.2828 7.52499 10.3688 7.6725 10.4025L7.75583 10.4158C7.90652 10.4295 8.05705 10.3881 8.1795 10.2992C8.30195 10.2103 8.38799 10.08 8.42167 9.9325L8.58333 9.22167L9.36667 9.2225L9.45167 9.21667C9.60145 9.19631 9.73877 9.12236 9.83821 9.00852C9.93765 8.89468 9.99247 8.74866 9.9925 8.5975L9.98667 8.5125C9.96613 8.36287 9.8921 8.22574 9.77828 8.12647C9.66445 8.0272 9.51853 7.97251 9.3675 7.9725H8.87L9.1725 6.65H9.7725L9.8575 6.64417C10.0071 6.62363 10.1443 6.5496 10.2435 6.43578C10.3428 6.32195 10.3975 6.17603 10.3975 6.025L10.3917 5.94083C10.3713 5.79105 10.2974 5.65373 10.1835 5.55429C10.0697 5.45485 9.92366 5.40003 9.7725 5.4H9.45917L9.5675 4.93L9.58083 4.84667C9.5943 4.69612 9.55276 4.54578 9.46389 4.42352C9.37502 4.30125 9.24486 4.21533 9.0975 4.18167L9.01417 4.16833C8.86362 4.15486 8.71328 4.19641 8.59102 4.28528C8.46875 4.37414 8.38283 4.50431 8.34917 4.65167L8.17667 5.4H6.95333L7.06667 4.93917L7.08167 4.85583C7.09898 4.6978 7.05542 4.53911 6.95986 4.41206C6.86429 4.28501 6.7239 4.19915 6.56726 4.17197C6.41062 4.14478 6.24951 4.17831 6.11672 4.26573C5.98394 4.35314 5.88945 4.48787 5.8525 4.6425M6.6475 6.65083H7.88917L7.5875 7.9725H6.325L6.6475 6.65083ZM2.08333 0C1.5308 0 1.0009 0.219493 0.610194 0.610194C0.219493 1.0009 0 1.5308 0 2.08333V14.5833C0 15.1359 0.219493 15.6658 0.610194 16.0565C1.0009 16.4472 1.5308 16.6667 2.08333 16.6667H13.125C13.2908 16.6667 13.4497 16.6008 13.5669 16.4836C13.6842 16.3664 13.75 16.2074 13.75 16.0417C13.75 15.8759 13.6842 15.7169 13.5669 15.5997C13.4497 15.4825 13.2908 15.4167 13.125 15.4167H2.08333C1.86232 15.4167 1.65036 15.3289 1.49408 15.1726C1.3378 15.0163 1.25 14.8043 1.25 14.5833H13.125C13.2908 14.5833 13.4497 14.5175 13.5669 14.4003C13.6842 14.2831 13.75 14.1241 13.75 13.9583V2.08333C13.75 1.80975 13.6961 1.53884 13.5914 1.28608C13.4867 1.03331 13.3333 0.80365 13.1398 0.610194C12.9464 0.416739 12.7167 0.263282 12.4639 0.158584C12.2112 0.053887 11.9403 0 11.6667 0H2.08333ZM12.5 13.3333H1.25V2.08333C1.25 1.86232 1.3378 1.65036 1.49408 1.49408C1.65036 1.3378 1.86232 1.25 2.08333 1.25H11.6667C11.8877 1.25 12.0996 1.3378 12.2559 1.49408C12.4122 1.65036 12.5 1.86232 12.5 2.08333V13.3333Z" fill="#1E1E1E"/>
</svg>
