<svg width="19" height="18" viewBox="0 0 19 18" fill="none" xmlns="http://www.w3.org/2000/svg">
    <path d="M6.16675 12.4166C6.46232 11.9046 6.88749 11.4795 7.39949 11.184C7.91149 10.8885 8.49226 10.7331 9.08341 10.7333C9.67457 10.7331 10.2553 10.8885 10.7673 11.184C11.2793 11.4795 11.7045 11.9046 12.0001 12.4166M10.7501 6.99992C10.7501 7.44195 10.5745 7.86587 10.2619 8.17843C9.94937 8.49099 9.52544 8.66659 9.08341 8.66659C8.64139 8.66659 8.21746 8.49099 7.9049 8.17843C7.59234 7.86587 7.41675 7.44195 7.41675 6.99992C7.41675 6.55789 7.59234 6.13397 7.9049 5.82141C8.21746 5.50885 8.64139 5.33325 9.08341 5.33325C9.52544 5.33325 9.94937 5.50885 10.2619 5.82141C10.5745 6.13397 10.7501 6.55789 10.7501 6.99992Z" stroke="#1E1E1E" stroke-width="1.5" stroke-linecap="round"/>
    <path d="M17.4167 10.3058V7.0275C15.0358 7.0275 13.4883 4.44167 14.6933 2.38917L11.8067 0.75C10.5867 2.82833 7.58167 2.82833 6.36167 0.75L3.475 2.38917C4.68 4.44167 3.13083 7.0275 0.75 7.0275V10.3058C3.13083 10.3058 4.67833 12.8917 3.47333 14.9442L6.36 16.5833C7.58083 14.5042 10.5875 14.5042 11.8083 16.5833L14.695 14.9442C13.4892 12.8917 15.0367 10.3058 17.4167 10.3058Z" stroke="#1E1E1E" stroke-width="1.5" stroke-linecap="round" stroke-linejoin="round"/>
</svg>
