<svg width="16" height="15" viewBox="0 0 16 15" fill="none" xmlns="http://www.w3.org/2000/svg">
    <path d="M1.66667 0C1.22464 0 0.800716 0.175595 0.488155 0.488155C0.175595 0.800716 0 1.22464 0 1.66667V13.3333C0 13.7754 0.175595 14.1993 0.488155 14.5118C0.800716 14.8244 1.22464 15 1.66667 15H13.3333C13.7754 15 14.1993 14.8244 14.5118 14.5118C14.8244 14.1993 15 13.7754 15 13.3333V11.4333C15.2519 11.2879 15.4613 11.0791 15.6075 10.8276C15.7537 10.5762 15.8316 10.2909 15.8333 10V5C15.8316 4.70914 15.7537 4.42381 15.6075 4.17236C15.4613 3.92091 15.2519 3.71209 15 3.56667V1.66667C15 1.22464 14.8244 0.800716 14.5118 0.488155C14.1993 0.175595 13.7754 0 13.3333 0H1.66667ZM1.66667 1.66667H13.3333V3.33333H8.33333C7.89131 3.33333 7.46738 3.50893 7.15482 3.82149C6.84226 4.13405 6.66667 4.55797 6.66667 5V10C6.66667 10.442 6.84226 10.8659 7.15482 11.1785C7.46738 11.4911 7.89131 11.6667 8.33333 11.6667H13.3333V13.3333H1.66667V1.66667ZM8.33333 5H14.1667V10H8.33333V5ZM10.8333 6.25C10.5018 6.25 10.1839 6.3817 9.94945 6.61612C9.71503 6.85054 9.58333 7.16848 9.58333 7.5C9.58333 7.83152 9.71503 8.14946 9.94945 8.38388C10.1839 8.6183 10.5018 8.75 10.8333 8.75C11.1649 8.75 11.4828 8.6183 11.7172 8.38388C11.9516 8.14946 12.0833 7.83152 12.0833 7.5C12.0833 7.16848 11.9516 6.85054 11.7172 6.61612C11.4828 6.3817 11.1649 6.25 10.8333 6.25Z" fill="#1E1E1E"/>
</svg>
